<?xml version="1.0" encoding="utf-8"?>
<!-- Generator: Adobe Illustrator 19.0.0, SVG Export Plug-In . SVG Version: 6.00 Build 0)  -->
<svg version="1.1" id="Layer_1" xmlns="http://www.w3.org/2000/svg" xmlns:xlink="http://www.w3.org/1999/xlink" x="0px" y="0px"
	 viewBox="-202 133.4 554.4 295.6" style="enable-background:new -202 133.4 554.4 295.6;" xml:space="preserve">
<path id="XMLID_4_" d="M-56.8,285.2c-12.9,7.4-28.8,11.1-47.9,11.1c-21.2,0-37.9-5.9-50.1-17.6s-18.3-27.9-18.3-48.4
	c0-20.7,6.7-37.5,20-50.6c13.3-13,31.1-19.6,53.2-19.6c14,0,26.3,1.9,36.9,5.8v27.8c-10.2-5.9-22.6-8.8-37.3-8.8
	c-12.3,0-22.3,4-30.1,12c-7.7,8-11.6,18.7-11.6,32c0,13.5,3.5,24,10.4,31.4c6.9,7.4,16.3,11.1,28.1,11.1c7.1,0,12.7-1,16.9-3v-25.7
	h-26.2V219h56V285.2z"/>
<path id="XMLID_6_" d="M47.2,294h-78.4V162.3h29.7v107.6h48.7L47.2,294L47.2,294z"/>
<path id="XMLID_8_" d="M168.5,237c0,39.5-18.4,59.3-55.3,59.3c-35.7,0-53.6-19.3-53.6-57.9v-76h29.7v76.4c0,21.3,8.3,31.9,25,31.9
	c16.3,0,24.5-10.3,24.5-30.8v-77.6h29.7L168.5,237L168.5,237z"/>
<path id="XMLID_10_" d="M305.2,285.2c-12.9,7.4-28.8,11.1-47.9,11.1c-21.2,0-37.9-5.9-50.1-17.6s-18.3-27.9-18.3-48.4
	c0-20.7,6.7-37.5,20-50.6c13.3-13,31.1-19.6,53.2-19.6c14,0,26.3,1.9,36.9,5.8v27.8c-10.2-5.9-22.6-8.8-37.3-8.8
	c-12.3,0-22.3,4-30.1,12c-7.7,8-11.6,18.7-11.6,32c0,13.5,3.5,24,10.4,31.4c6.9,7.4,16.3,11.1,28.1,11.1c7.1,0,12.7-1,16.9-3v-25.7
	h-26.3V219h56L305.2,285.2L305.2,285.2z"/>
<path id="XMLID_12_" d="M-130.4,401.6l-6.1-11.6c-0.6-1.2-1.2-2.1-1.8-2.9c-0.6-0.8-1.2-1.4-1.8-1.9c-0.6-0.5-1.3-0.8-1.9-1
	c-0.7-0.2-1.5-0.3-2.3-0.3h-4.5v17.7h-3.8V361h11.7c1.5,0,3,0.2,4.4,0.7s2.7,1.1,3.8,2c1.1,0.9,2,2,2.7,3.3s1,2.9,1,4.7
	c0,1.4-0.2,2.8-0.7,4c-0.4,1.2-1.1,2.3-1.9,3.2c-0.8,0.9-1.8,1.7-2.9,2.4s-2.4,1.1-3.9,1.5v0.1c0.5,0.2,1,0.5,1.5,0.9
	s0.9,0.8,1.3,1.3c0.4,0.5,0.8,1.1,1.3,1.8c0.4,0.7,0.8,1.4,1.3,2.3l6.8,12.6h-4.2V401.6z M-148.8,364.4v16.1h6.8
	c1.4,0,2.6-0.2,3.7-0.6c1.1-0.4,2.1-1,2.9-1.7c0.8-0.7,1.4-1.6,1.9-2.7c0.4-1,0.7-2.2,0.7-3.5c0-2.4-0.8-4.2-2.3-5.6
	c-1.5-1.3-3.7-2-6.6-2H-148.8z"/>
<path id="XMLID_29_" d="M-15.9,401.6L-38.4,369c-0.3-0.4-0.6-0.8-0.8-1.3c-0.3-0.4-0.5-0.9-0.7-1.3H-40c0,0.3,0.1,0.8,0.1,1.4
	c0,0.6,0,1.4,0,2.3v31.5h-3.8V361h4.2l22.2,32.2c0.3,0.5,0.6,1,0.9,1.4c0.3,0.4,0.5,0.9,0.8,1.2h0.1c-0.1-0.6-0.1-1.3-0.2-2.1
	c0-0.8-0.1-1.6-0.1-2.6v-30.2h3.8v40.6h-3.9V401.6z"/>
<path id="XMLID_31_" d="M72.4,395.6c0.7,0.5,1.4,1,2.3,1.4s1.7,0.7,2.5,1c0.9,0.3,1.7,0.5,2.6,0.6s1.7,0.2,2.5,0.2
	c3.1,0,5.4-0.6,6.9-1.8c1.5-1.2,2.3-2.9,2.3-5.1c0-1.1-0.2-2-0.5-2.8c-0.4-0.8-0.9-1.6-1.7-2.3c-0.8-0.7-1.7-1.4-2.9-2.1
	c-1.2-0.7-2.5-1.5-4.1-2.3c-1.7-0.9-3.2-1.8-4.5-2.7c-1.2-0.8-2.2-1.7-3-2.6s-1.4-1.8-1.7-2.8s-0.6-2.2-0.6-3.5c0-1.6,0.3-3.1,1-4.4
	c0.7-1.3,1.6-2.4,2.8-3.3s2.6-1.6,4.2-2.1s3.3-0.7,5.1-0.7c3.2,0,5.9,0.4,8,1.3v4.2c-2.4-1.4-5.2-2.1-8.4-2.1
	c-1.2,0-2.3,0.1-3.4,0.4c-1.1,0.3-2,0.7-2.8,1.3s-1.4,1.3-1.9,2.1s-0.7,1.8-0.7,2.9s0.2,2,0.5,2.7c0.3,0.7,0.8,1.5,1.5,2.2
	s1.6,1.4,2.7,2c1.1,0.7,2.5,1.4,4.1,2.3c1.7,0.9,3.2,1.8,4.4,2.6c1.3,0.9,2.3,1.8,3.2,2.7s1.5,1.9,1.9,3c0.4,1,0.6,2.2,0.6,3.5
	c0,1.8-0.3,3.3-1,4.7c-0.7,1.3-1.6,2.5-2.8,3.4c-1.2,0.9-2.6,1.6-4.2,2c-1.6,0.5-3.4,0.7-5.4,0.7c-0.6,0-1.4-0.1-2.3-0.2
	s-1.8-0.3-2.7-0.5s-1.8-0.4-2.6-0.7s-1.5-0.6-2-0.9v-4.3H72.4z"/>
<path id="XMLID_33_" d="M182.9,401.6h-3.8V361h3.8V401.6z"/>
<path id="XMLID_35_" d="M280.5,364.4v37.2h-3.8v-37.2H265v-3.5h27.2v3.5H280.5z"/>
</svg>
