<?xml version="1.0" encoding="utf-8"?>
<!-- Generator: Adobe Illustrator 19.0.0, SVG Export Plug-In . SVG Version: 6.00 Build 0)  -->
<svg version="1.1" id="Layer_1" xmlns="http://www.w3.org/2000/svg" xmlns:xlink="http://www.w3.org/1999/xlink" x="0px" y="0px"
	 viewBox="-202 133.4 554.4 295.6" style="enable-background:new -202 133.4 554.4 295.6;" xml:space="preserve">
<style type="text/css">
	.st0{fill:#FFFFFF;}
</style>
<path id="XMLID_4_" class="st0" d="M-65.6,286.1c-14.9,9-33.3,13.6-55.3,13.6c-24.5,0-43.8-7.2-57.9-21.5
	c-14.1-14.3-21.1-34.1-21.1-59.1c0-25.3,7.7-45.8,23.1-61.8c15.4-15.9,35.9-23.9,61.4-23.9c16.2,0,30.4,2.3,42.6,7.1v33.9
	c-11.8-7.2-26.1-10.7-43.1-10.7c-14.2,0-25.8,4.9-34.8,14.7c-8.9,9.8-13.4,22.8-13.4,39.1c0,16.5,4,29.3,12,38.3
	c8,9,18.8,13.6,32.5,13.6c8.2,0,14.7-1.2,19.5-3.7v-31.4h-30.3v-28.9h64.7C-65.6,205.3-65.6,286.1-65.6,286.1z"/>
<path id="XMLID_6_" class="st0" d="M54.5,296.9h-90.5V136.1h34.3v131.4h56.2L54.5,296.9L54.5,296.9z"/>
<path id="XMLID_8_" class="st0" d="M194.5,227.3c0,48.2-21.2,72.4-63.9,72.4c-41.2,0-61.9-23.6-61.9-70.7v-92.8h34.3v93.3
	c0,26,9.6,38.9,28.9,38.9c18.8,0,28.3-12.6,28.3-37.6v-94.7h34.3V227.3L194.5,227.3z"/>
<path id="XMLID_10_" class="st0" d="M352.4,286.1c-14.9,9-33.3,13.6-55.3,13.6c-24.5,0-43.8-7.2-57.9-21.5
	c-14.1-14.3-21.1-34.1-21.1-59.1c0-25.3,7.7-45.8,23.1-61.8c15.4-15.9,35.9-23.9,61.4-23.9c16.2,0,30.4,2.3,42.6,7.1v33.9
	c-11.8-7.2-26.1-10.7-43.1-10.7c-14.2,0-25.8,4.9-34.8,14.7c-8.9,9.8-13.4,22.8-13.4,39.1c0,16.5,4,29.3,12,38.3
	c8,9,18.8,13.6,32.5,13.6c8.2,0,14.7-1.2,19.5-3.7v-31.4h-30.4v-28.9h64.7L352.4,286.1L352.4,286.1z"/>
<path id="XMLID_12_" class="st0" d="M-150.6,428.3l-7-14.2c-0.7-1.5-1.4-2.6-2.1-3.5c-0.7-1-1.4-1.7-2.1-2.3c-0.7-0.6-1.5-1-2.2-1.2
	c-0.8-0.2-1.7-0.4-2.7-0.4h-5.2v21.6h-4.4v-49.6h13.5c1.7,0,3.5,0.2,5.1,0.9c1.6,0.6,3.1,1.3,4.4,2.4c1.3,1.1,2.3,2.4,3.1,4
	c0.8,1.6,1.2,3.5,1.2,5.7c0,1.7-0.2,3.4-0.8,4.9c-0.5,1.5-1.3,2.8-2.2,3.9c-0.9,1.1-2.1,2.1-3.3,2.9c-1.3,0.9-2.8,1.3-4.5,1.8v0.1
	c0.6,0.2,1.2,0.6,1.7,1.1c0.6,0.5,1,1,1.5,1.6c0.5,0.6,0.9,1.3,1.5,2.2c0.5,0.9,0.9,1.7,1.5,2.8l7.9,15.4h-4.9V428.3L-150.6,428.3z
	 M-171.9,382.8v19.7h7.9c1.6,0,3-0.2,4.3-0.7c1.3-0.5,2.4-1.2,3.3-2.1s1.6-2,2.2-3.3c0.5-1.2,0.8-2.7,0.8-4.3c0-2.9-0.9-5.1-2.7-6.8
	c-1.7-1.6-4.3-2.4-7.6-2.4L-171.9,382.8L-171.9,382.8z"/>
<path id="XMLID_29_" class="st0" d="M-18.4,428.3l-26-39.8c-0.3-0.5-0.7-1-0.9-1.6c-0.3-0.5-0.6-1.1-0.8-1.6h-0.1
	c0,0.4,0.1,1,0.1,1.7c0,0.7,0,1.7,0,2.8v38.5h-4.4v-49.6h4.9L-20,418c0.3,0.6,0.7,1.2,1,1.7c0.3,0.5,0.6,1.1,0.9,1.5h0.1
	c-0.1-0.7-0.1-1.6-0.2-2.6c0-1-0.1-2-0.1-3.2v-36.9h4.4v49.6L-18.4,428.3L-18.4,428.3z"/>
<path id="XMLID_31_" class="st0" d="M83.6,420.9c0.8,0.6,1.6,1.2,2.7,1.7c1,0.5,2,0.9,2.9,1.2c1,0.4,2,0.6,3,0.7
	c1,0.1,2,0.2,2.9,0.2c3.6,0,6.2-0.7,8-2.2c1.7-1.5,2.7-3.5,2.7-6.2c0-1.3-0.2-2.4-0.6-3.4c-0.5-1-1-2-2-2.8c-0.9-0.9-2-1.7-3.3-2.6
	c-1.4-0.9-2.9-1.8-4.7-2.8c-2-1.1-3.7-2.2-5.2-3.3c-1.4-1-2.5-2.1-3.5-3.2s-1.6-2.2-2-3.4c-0.3-1.2-0.7-2.7-0.7-4.3
	c0-2,0.3-3.8,1.2-5.4c0.8-1.6,1.8-2.9,3.2-4s3-2,4.9-2.6c1.8-0.6,3.8-0.9,5.9-0.9c3.7,0,6.8,0.5,9.2,1.6v5.1c-2.8-1.7-6-2.6-9.7-2.6
	c-1.4,0-2.7,0.1-3.9,0.5c-1.3,0.4-2.3,0.9-3.2,1.6c-0.9,0.7-1.6,1.6-2.2,2.6s-0.8,2.2-0.8,3.5s0.2,2.4,0.6,3.3
	c0.3,0.9,0.9,1.8,1.7,2.7s1.8,1.7,3.1,2.4c1.3,0.9,2.9,1.7,4.7,2.8c2,1.1,3.7,2.2,5.1,3.2c1.5,1.1,2.7,2.2,3.7,3.3
	c1,1.1,1.7,2.3,2.2,3.7c0.5,1.2,0.7,2.7,0.7,4.3c0,2.2-0.3,4-1.2,5.7c-0.8,1.6-1.8,3.1-3.2,4.2c-1.4,1.1-3,2-4.9,2.4
	c-1.8,0.6-3.9,0.9-6.2,0.9c-0.7,0-1.6-0.1-2.7-0.2c-1-0.1-2.1-0.4-3.1-0.6c-1-0.2-2.1-0.5-3-0.9c-0.9-0.4-1.7-0.7-2.3-1.1
	L83.6,420.9L83.6,420.9L83.6,420.9z"/>
<path id="XMLID_33_" class="st0" d="M211.2,428.3h-4.4v-49.6h4.4V428.3z"/>
<path id="XMLID_35_" class="st0" d="M323.9,382.8v45.4h-4.4v-45.4H306v-4.3h31.4v4.3H323.9z"/>
</svg>
